<svg xmlns="http://www.w3.org/2000/svg" xmlns:xlink="http://www.w3.org/1999/xlink" version="1.1" x="0px" y="0px" viewBox="0 0 60 75" style="enable-background:new 0 0 60 60;" xml:space="preserve"><path d="M24.772522,18.1152344c0,4.1671753,2.7162476,9.0109253,6.2189941,9.0109253  c2.9952393,0,5.4092407-3.5422974,6.0477295-7.1741943c0.1331177-0.1786499,0.1982422-0.4074707,0.1604004-0.6448975  c-0.0079956-0.0502319-0.0352173-0.0907593-0.0513306-0.1373291c0.0366821-0.3539429,0.0622559-0.7067871,0.0622559-1.0545044  c0-2.2320557-0.8193359-4.0030518-2.2368774-5.104187c0.0133057-0.131897,0.0253906-0.2642212,0.0253906-0.399353  c0-2.2098389-1.7977295-4.0075684-4.0075684-4.0075684c-2.2097778,0-4.0075073,1.7977295-4.0075073,4.0075684  c0,0.1351318,0.012146,0.2674561,0.0253906,0.399292C25.5918579,14.1121216,24.772522,15.8831787,24.772522,18.1152344z   M30.9915161,25.4144897c-1.8540039,0-3.5022583-2.3426514-4.178833-4.913269  c2.578125-0.3018799,4.1625366-1.6053467,5.0029297-2.5819702c0.7130737,0.8925781,1.9153442,2.0458984,3.4157104,2.333252  C34.5985718,22.9186401,32.9052124,25.4144897,30.9915161,25.4144897z M30.9915161,10.3157959  c1.0891724,0,1.9989014,0.763916,2.2332764,1.7825928c-0.677002-0.2189331-1.4220581-0.3404541-2.2332764-0.3404541  c-0.8111572,0-1.5562134,0.121521-2.2332153,0.3404541C28.9926758,11.0797729,29.9024048,10.3157959,30.9915161,10.3157959z   M30.9915161,13.4696045c1.3556519,0,4.5073853,0.4525757,4.5073853,4.6456299c0,0.1496582-0.0089722,0.302063-0.0174561,0.4542847  c-1.6260986-0.3569946-2.9022827-2.5378418-2.9161377-2.5629272c-0.156311-0.2737427-0.4613647-0.4274902-0.765564-0.4304199  c-0.31427,0.0075073-0.6009521,0.1884766-0.7438354,0.4688721c-0.0545044,0.1057739-1.2784424,2.4268188-4.5394287,2.769043  c-0.0197754-0.2352905-0.0322876-0.4690552-0.0322876-0.6988525C26.4841919,13.9221802,29.6359253,13.4696045,30.9915161,13.4696045  z"/><path d="M36.9782104,26.0827026c-0.5934448-0.3865356-1.2745972-0.3192749-1.7752075,0.1809692  c-0.0285645,0.0285645-0.0518799,0.0568237-0.079834,0.0852661c-0.0307617,0.0320435-0.06073,0.0640869-0.1140747,0.1123657  c-1.2018433,1.1621704-2.5917358,1.7764282-4.0175781,1.7764282c-1.2778931,0-2.494751-0.4780273-3.6172485-1.4212036  c-0.2582397-0.21521-0.6159058-0.2620239-0.918457-0.1178589c-1.5403442,0.7325439-2.7154541,1.8942871-3.3983154,3.3585815  c-0.4504395,0.9649048-0.6794434,1.9649048-0.6794434,2.9715576c0,2.3778076,0.6627197,3.7376099,1.3046265,4.4977417  c-1.527771,1.114502-4.1253662,3.6439819-4.1253662,7.9641113c0,3.1400146,2.3861084,5.5541382,2.4872437,5.6552734  c0.1604614,0.1600342,0.3777466,0.2498779,0.604248,0.2498779h15.8045654c0.2573853,0,0.5006104-0.1157227,0.6635742-0.3150635  c0.1621704-0.1997681,0.2265015-0.461792,0.1746826-0.7137451c-0.0065308-0.0328369-0.6653442-3.2418823-1.3248291-7.5091553  c1.0845947-1.1095581,1.8515015-2.2593384,2.227478-3.2322388C41.1537476,37.1416626,39.1754761,27.5126953,36.9782104,26.0827026z   M23.0274048,49.6841431c-0.5206909-0.6083984-1.7584229-2.258667-1.7584229-4.1934814  c0-4.9089355,4.0852661-7.0246582,4.2565918-7.1107788c0.2966919-0.147522,0.4680176-0.4584351,0.4613647-0.7897949  c-0.0067139-0.3309937-0.2181396-0.6347656-0.5198975-0.7702026c-0.0568237-0.0250244-1.3773193-0.65271-1.3773193-3.7910767  c0-0.7651367,0.1696167-1.5001831,0.5189819-2.2478027c0.4437866-0.9519653,1.1726074-1.7367554,2.1228638-2.293335  c1.3071899,0.9581909,2.7689209,1.461731,4.2599487,1.461731c0.8245239,0,1.631897-0.1589355,2.4080811-0.4508057  c-0.1460571,0.7942505-0.1868286,1.7520142-0.1105347,2.9949341c0.045166,0.7363281,0.1445923,1.4262695,0.2407227,2.0936279  c0.3577271,2.4880981,0.4446411,3.7288208-1.4684448,4.7371826c-1.7543335,0.9251709-3.4058228,1.8161011-4.5499878,2.4375  c-1.2728882,0.6915894-1.8403931,2.2327881-1.3197021,3.585083c0,0.0004272,0,0.0004272,0,0.0004272  c0,0.0004272,0,0.0004272,0,0.0004272c0.4346313,1.1303711,1.5027466,1.8624878,2.6652832,1.8624878  c0.1028442,0,0.2064819-0.0058594,0.3101196-0.0175171c2.9083862-0.3272705,5.3899536-1.5238647,7.2808228-2.9815063  c0.3826294,2.3806763,0.7471313,4.348877,0.9641113,5.4729004H23.0274048z M38.5979004,39.0083618  c-0.7120361,1.8424683-4.0016479,5.8513184-9.6213989,6.4835815c-0.5098267,0.0513916-0.9971313-0.2637329-1.1868286-0.7584839  c0-0.0004272,0-0.0008545,0-0.0008545c-0.2139282-0.5532837,0.0183716-1.1838379,0.5390625-1.4667969  c1.1391602-0.6192627,2.7839966-1.5060425,4.5316162-2.427063c3.0647583-1.616394,2.7078857-4.0965576,2.3635254-6.4952393  c-0.0910645-0.6334839-0.1855469-1.2883301-0.2264404-1.9544678c-0.1712036-2.7888184,0.2574463-3.7034302,1.2197876-4.7146606  c0.0009766-0.0009155,0.0020752-0.0020142,0.0031128-0.0029907C37.43396,29.0415039,39.3651123,37.0222778,38.5979004,39.0083618z"/><text x="0" y="75" fill="#000000" font-size="5px" font-weight="bold" font-family="'Helvetica Neue', Helvetica, Arial-Unicode, Arial, Sans-serif">Created by Vectorstall</text><text x="0" y="80" fill="#000000" font-size="5px" font-weight="bold" font-family="'Helvetica Neue', Helvetica, Arial-Unicode, Arial, Sans-serif">from the Noun Project</text></svg>